<svg xmlns="http://www.w3.org/2000/svg" viewBox="0 0 480 480">
<defs><linearGradient id="g" x1="0" y1="0" x2="1" y2="1"><stop stop-color="#8b69ea"/><stop offset="1" stop-color="#ff84b5"/></linearGradient></defs>
<path d="M302 68c-79 24-117 118-72 189 41 66 123 85 188 44-26 78-102 129-187 119C126 408 52 313 70 211 86 119 188 48 302 68z" fill="url(#g)" stroke="#1d1b2d" stroke-width="9"/>
<path d="M153 331c-31-68-6-143 48-168l-10-49 46 30 43-25-2 51c50 32 66 104 31 161-37 59-128 60-156 0z" fill="#171522" stroke="#1d1b2d" stroke-width="9"/>
<ellipse cx="205" cy="222" rx="11" ry="15" fill="#ff83b3"/><ellipse cx="266" cy="222" rx="11" ry="15" fill="#ff83b3"/>
<path d="M226 250c10 8 20 8 30 0" fill="none" stroke="#ffcfdf" stroke-width="7" stroke-linecap="round"/>
<g fill="#ffd976"><circle cx="121" cy="96" r="8"/><circle cx="387" cy="121" r="5"/><path d="M375 211l6 13 13 6-13 6-6 13-6-13-13-6 13-6z"/></g>
</svg>